<?xml version="1.0" encoding="utf-8"?>
<!-- Generator: Adobe Illustrator 19.0.0, SVG Export Plug-In . SVG Version: 6.00 Build 0)  -->
<svg version="1.1" id="mountains" xmlns="http://www.w3.org/2000/svg" xmlns:xlink="http://www.w3.org/1999/xlink" x="0px" y="0px"
	 viewBox="0 0 595.7 256.7" style="enable-background:new 0 0 595.7 256.7;" xml:space="preserve">
<style type="text/css">
	.st0{fill-rule:evenodd;clip-rule:evenodd;fill:#111513;}
</style>
<path id="XMLID_2_" class="st0" d="M596.4,256.7L596,101.2c-1.9-0.7-2-2.1-3.9-2.7c-1.5,0.4-8.4,5.1-9.4,6.5
	c-2.3-0.4-2.5-1.2-4.7-1.8v-2.3c-3.7-0.1-4.7,0.2-6.5,1.8c-0.6,0.6-0.8-0.8-2.3,0c-1.9,0.9-2.3,2.1-2.3,4.7
	c-2.7-0.1-5.1-2.5-8.2-1.2c-1.2,0.5-0.9,1.1-1.8,1.2c-2.4-0.2-2.9-0.5-4.1-1.8c-0.4-0.6-0.4-0.5-0.6-1.8c-3.1,0.6-5.4,3.5-7.6,2.3
	c-1.3-0.8-0.9-1.3-1.8-2.3c-1-0.6-1.5-0.4-3.5-0.6v1.8c-2.8-1.3-7.5-3-8.8-4.1c-0.4-0.2-0.8-0.4-1.2-0.6v-1.8
	c0.5,0.6,0.2,0.1,0.6,1.2c1.2-0.2,1.1-0.1,1.8-0.6c0.9-0.8-0.2,0,0-1.2h0.6c-1.2-1.1-1.6-0.5-2.3-2.3c-1.4-0.2-2.7-0.4-4.1-0.6
	c0.4-2.1,0.4-2,1.8-2.9v-1.8c-1.3,0.4-1.5,0.4-2.3,1.2c-1.7-1.8-2-2.9-5.3-1.8c-0.4-2.1-0.9-2.2,0.6-3.5c-0.2-1.4-0.3-1.5-0.6-2.3
	c-2.3,0.1-2.5,0-3.5,1.2h-1.2c-0.5-2.2-0.9-3.7,0.6-5.3c-0.2-1.4-0.3-1.5-0.6-2.3h-3.5c-0.1-2.3-0.6-4.3-0.6-4.7v-1.2
	c-4.4,0.4-10.9,3.5-12.9-1.2c-1.7,0.7-1.1,0.1-1.8,1.8c-1.4-0.3-2.9-3.3-4.1-5.3h-2.3c0,4.2,0.7,7.1,1.2,10h-1.8v0.6
	c-0.4,0.6-0.4,0.5-0.6,1.8c-3.8-0.1-5.6-0.6-8.2,1.2c-0.5-1.5-0.7-1.4-1.2-2.9c-1.2,0.2-2.3,0.4-3.5,0.6c0-2.4-0.1-3.5-1.2-4.7
	c-1.6-2.6-6.9-1.6-8.2-2.3c-1.4-0.7-0.9-1-2.3-1.8c0.1-2.4,0.4-2.7,1.2-4.1c-1-0.9-0.8-0.5-1.2-2.3c-1.9,0.5-2.3,1-4.7,1.2v-1.8H459
	v-0.6c-3.7,0.5-2.4,2.6-4.7,3.5c-1.4,0.6-2.7-0.2-4.1,0c-0.2,1.6-0.4,3.1-0.6,4.7l-7.6,2.9c-1.4,1.5-1,3.6-2.9,4.7
	c-1,0.5-1.8,0.3-2.9-0.6c-2.7,2.2-3.9,4.6-5.3,8.2c-3.3-0.4-2.3-1.4-4.1-2.9c-0.4-0.5,0-0.1-0.6,0c-1.5,0.8-1.6,1.4-1.8,3.5
	c-1.3-0.9-0.9-1.3-2.9-1.8c-0.9-4.1-3.4-3.5-2.9-7.6c-2.7-1.2-6.9-5.7-10-4.1c-6.6-1.9-2.1-9.3-5.9-11.1c0.4-2.6,1.4-3.8,2.3-5.9
	c-2.2-1.8-4.2-5.9-4.1-10h-4.7c-0.2-1.2-0.4-2.3-0.6-3.5h-0.6c-0.6-0.4-0.5-0.4-1.8-0.6v-4.1h-1.8c0.3-0.9,0.4-1,0.6-2.3
	c-6.5-0.4-8.2-2.4-14.1,0c-3.4,1.4-3.8-1.9-7,1.2c-1.9,0.9-0.2,1.1-2.3,2.3c0.5,1.4,0.2,1,1.2,1.8c-0.2,0.6-0.4,1.2-0.6,1.8
	c-0.6,0.2-1.2,0.4-1.8,0.6c-0.3-0.9-0.4-1-0.6-2.3h-1.2c-0.8,2-1.8,3.4-2.3,5.3c-1.6-1-3.7-2.3-5.3-3.5h-1.8
	c0.9,3.7,1.5,5.9,3.5,8.2c-4,2.5-2.8,6.8-6.5,9.4v0.6c-1.5-0.9-0.7,0.1-1.2-1.8h-1.2c-0.7,1.3-1.3,2.5-2.3,3.5v0.6h-0.6
	c0.4-3,2.2-6.6,4.1-8.2c-0.9-1.5,0.1-0.7-1.8-1.2c0.6-2,1.9-3.6,3.5-4.7v-0.6c-1.4,0.5-2,0.8-2.9,1.8c-2.4-1.1,0.5-1.1-2.3-1.8
	c0.6-2.2,1.3-3.6,2.9-4.7c-0.8-1.4,0.3-0.4-1.2-1.2c-1.1-0.5-3.2,0.3-5.3,0c-0.1,2-0.3,2,1.2,3.5c-0.8,1.4,0.3,0.4-1.2,1.2
	c-1.3,0.3-0.8,0.4-1.8-1.2c-3.5,0.1-3.9,1.5-4.1,4.7c-0.9-0.3-1-0.4-2.3-0.6c-0.1-4.5-0.9-9.1-2.9-11.7c-0.4-0.5,0-0.1-0.6,0
	c-1.3,1-1.5,1.4-1.8,3.5c-0.9-0.5-2.2-1.1-2.9-1.8c-1.9,0.3-3,0.8-4.1,1.8c-1.3,1.9-1.4,3.8-2.9,5.3v0.6c-1.5-0.8-0.3-1.4-1.8-2.9
	c-0.6-0.5-0.1-0.2-1.2-0.6c-0.4,1-0.5,1.8-0.6,3.5c-1.9-0.6-2-1.1-4.7-1.2c-0.3-0.9-0.7-3.3-1.2-4.1c-0.4-0.5,0-0.1-0.6,0
	c-1.4-0.9-0.9-0.2-1.2-2.3c-1.7-0.3-3-1-4.7,0h-0.6c0.2-1.2,0.1-1.1,0.6-1.8v-0.6c-3.1,0-1.9,0.3-4.7,1.2c-0.5-1.3-0.6-3.2-0.6-5.3
	c-2.2,1.4-2.7,1.8-5.9,1.2c-0.7,1.4-1,1.9-1.2,4.1c-2.3,0.6-3.7,1.3-4.7-1.2c-3.2,1.8-0.6,4.3,0,7c-3.3-0.1-3.5-0.6-5.3-1.8
	c-0.6,0.8-1.2,1.6-1.8,2.3c-1.4-0.9-0.9-0.2-1.2-2.3c-0.8,0.6-1.6,1.2-2.3,1.8v-0.6c-0.4-0.8-0.2-0.7,0.6-1.8v-0.6
	c-4.2,0.8-1.3,1.4-5.3,0.6c-0.5,0.5-1,0.8-1.8,1.2v2.3c-2.7,0.1-2.5,0.1-3.5,1.8c-1.3-1.7-0.8-2.3-0.6-4.7c-2.9-0.4-1.9-1.2-2.3-4.1
	c-1.2,0.6-2,1.1-2.9,1.8c0,0-3.4-1.7-5.3-1.2c0.3-0.9,0.4-1,0.6-2.3c-1.8,0.8-4.8,3.1-5.9,4.7h-0.6v-2.9c-1.9,0.3-1.7,0.5-2.9,1.2
	c-0.2-0.4-0.4-0.8-0.6-1.2h-0.6c-0.5-0.4,1.1-1.1,1.2-1.2c-0.5-2.4-1.3-2.5-2.3-4.1c-3.6-0.2-4.3,0.3-7,0c-0.7,1.3-1.6,2.8-2.3,4.1
	c-1.3-0.8-0.9-1.3-1.8-2.3c-1.5-1.4-3.1-0.7-4.7,0.6v-0.6h-0.6c0.2-2.4,0.5-2.9,1.8-4.1v-0.6c-2.9,0.1-4.4-0.9-6.5,1.8h-0.6
	c0.4-1.8,0.1-1.4,1.2-2.3v-2.9c-1.4,0.4-1.3,0.6-2.3,1.2c-0.4-1.2-0.8-2.3-1.2-3.5c-2.1,0.3-3.1,0.5-4.1,1.8h-1.8
	c0.5-1.1,1-2.1,1.8-2.9v-1.2c-2,0.4-1.8,0.7-3.5,1.2c-0.3-0.9-0.4-1-0.6-2.3c-2.3,0.6-3.1,1.1-4.1,2.9c-1.3-0.7-0.6-1.1-1.2-2.9
	c-2.3,0.6-7.6,3.9-9.4,2.9c-2.3,1.2-2.7,5.6-1.2,7.6v1.2c-2.5-0.8-6.6,0.3-7.6-1.2c-1.9,0.6-3.1,1.4-4.1,2.9
	c-2.1-0.2-4.4-0.7-5.9-1.8c-2.3-1.1-2.5-3.5-2.3-5.3c-0.7-0.7-2.2,0.1-2.9-0.6c-0.5-0.5-1.6-4.1-1.8-4.7c-1.7,0.5-1.5,0.9-3.5,1.2
	v-1.8c-2.2,0.4-4.3,0.8-6.5,1.2V24h-1.8v-4.1c-2.8,0.5-3.2,1.3-4.1,3.5h-1.2c0.2-1.2,0.6-3.2,1.2-4.1v-1.2h-4.1
	c-0.8,2.6-2,0.8-3.5,3.5c-2.1-0.3-3.3-0.8-4.1-2.3c-2.2,0.2-2.2,0.5-3.5,1.2v1.8h1.8c-1,1.9-1.5,2.1-3.5,2.9
	c0.9,1.5-0.1,0.7,1.8,1.2V27c-1.2,0.4-1.1,0.1-1.8,0.6h-1.2c0.6,2.4,1.4,1.6,2.3,3.5c0.6,0.5,0.1,0,0.6,0.6h-0.6
	c-1.2,0.5-1.7-0.3-4.1-0.6c0-1.8,0.1-3.7-0.6-4.7c-1.1-0.6-1.1-0.2-2.9,0c-0.3,0.9-0.4,1-0.6,2.3c-1.8-0.9-1.2-6.1-2.9-8.2
	c-0.5-0.3-1.9-0.2-2.9,0.6h-1.2c1.1-2.9,2.8-3.3,2.9-7.6c-3.2,0.4-3.4,1.5-5.9,2.3c-0.6,0.5-0.1,0.2-1.2,0.6
	c-0.7-1.5-1.2-4.1-1.8-5.9h-2.3V8.8c-1.7,0.1-0.9,0.4-1.8,0c-1.7,1.1-0.6,2.5-1.8,4.1c-0.7,1-3.6,2.3-4.7,2.9c0.5,1,1,3.6,1.8,4.7
	c-0.5,1.6-1,1.7-1.8,2.9h-0.6c0-2.1-0.2-5.5,0-5.9v-1.8c-1.4,0.5-1,0.2-1.8,1.2c-0.5-0.7-0.5-1-0.6-2.3c-1.4,0.4-1.8,0.7-2.9,1.2
	c-0.2,1-0.4,2-0.6,2.9h1.8c-0.9,1.5,0.1,0.7-1.8,1.2c-1.1,4.5-2.2,6.2-2.3,10.6h-2.3c-0.2,1.4-0.3,1.5-0.6,2.3
	C96.9,33.5,96,33.9,93,34v-1.8c-3.5,0.7-7.3,1.5-9.4-2.3c-2.6,1.5-2.6,4.2-5.9,5.3c-0.6,0.5-0.1,0.2-1.2,0.6c-0.3-0.9-0.4-1-0.6-2.3
	c-2,1.1-1.7,4.2-2.3,6.5h-0.6v0.6c-0.4-0.6-0.4-0.5-0.6-1.8c-1.6,0.8-3.1,1.6-4.7,2.3c-0.2-0.6-0.4-1.2-0.6-1.8
	c2.7-2.6,2.8-3.8,4.1-7c-0.6-0.2-1.2-0.4-1.8-0.6c0.7-2.5,1.6-1.9,1.8-5.3c-2.1,0.2-2,0-2.9,1.2h-0.6c0.4-2.2,0-2.3,1.2-3.5v-1.2
	c-1.4,0.2-1.5,0.3-2.3,0.6c-0.8,2.1-1.6,3.8-1.8,6.5h-1.8c0.4-0.5,0.7-0.7,1.2-1.2h-0.6v-0.6c-2.3,0.4-2.6,0.9-4.1,1.8v-0.6
	c0,0,3-4.2,4.1-5.3c-0.9-1.8-0.4-0.7-2.3-0.6c3.2-5.8,2.1-4,1.2-10h-4.7c0.7-2.4,2.3-5.1,2.9-6.5V5.9c-0.9,0.6-1.2,0.9-1.8,1.8h-1.2
	c0.2-2.7,0-3.5,1.8-5.3C59.4,1,59.3,0.9,59,0c-1.2,0.2-2.3,0.4-3.5,0.6c0,5-0.5,1.7-1.8,4.7c0.2,0.8,0.4,1.6,0.6,2.3
	c-0.5,0.6-1.9,0.1-2.3,1.2c-0.9,2.3,0.4,4.2,0,5.9h-0.6v0.6h-0.6c1.1-3.2,0.8-9.1-1.2-11.1c-0.6-0.5-0.1-0.2-1.2-0.6v0.6h-0.6V7
	c-2.9,0.3-5.2,1.2-7-0.6C38.5,7.2,37,8.6,35,9.4c0.3,5.9,0.2,5.6-3.5,8.2c-0.3,0.6,0.9,2.5,0,4.1c0,0-1.5,1.2-1.8,1.8
	c-1.4,0.3-0.9,0.1-2.9,0c-0.6,1.4-1,2.9-1.2,4.7c-3.1-0.6-5.2-0.4-6.5-2.3c-1.7,0.9-1.7,2.1-3.5,2.9v1.8h-1.8v-1.8
	c-2.1-0.2-3.2,0.3-4.1,1.2c-1.2-0.2-1.1-0.1-1.8-0.6c-0.6-0.8-0.6-1.9-0.6-3.5c-0.8,0.2-1.6,0.4-2.3,0.6c0.5-1.6,1.3-2.5,2.3-3.5
	v-1.8c-1.7,0.6-2.1,1-2.9,2.3H3.9C3.9,22,4,21.3,4.5,20.5v-1.8c-1.7,0.7-2,1.1-4.7,1.2c0,0,0,0,0,0.1l0.4,236.7H596.4z"/>
</svg>
