<?xml version="1.0" encoding="utf-8"?>
<!-- Generator: Adobe Illustrator 19.0.0, SVG Export Plug-In . SVG Version: 6.00 Build 0)  -->
<svg version="1.1" id="mountains" xmlns="http://www.w3.org/2000/svg" xmlns:xlink="http://www.w3.org/1999/xlink" x="0px" y="0px"
	 viewBox="0 0 595.7 285.7" style="enable-background:new 0 0 595.7 285.7;" xml:space="preserve">
<style type="text/css">
	.st0{fill-rule:evenodd;clip-rule:evenodd;fill:#141B17;}
</style>
<path class="st0" d="M596.4,285.6V0.3c-2.2,1.1-5-1-8.5-0.1c-0.9,0.2-3.4,1.7-4.1,1.8c-1.9,0.3-7.4-1.4-10.1-0.6
	c-2.4,0.7-6.3,3.9-7.7,3.5c-1.3-1.6-0.4-2.3-3-3c0.2,1.7,1,0.7-0.6,1.8c-2.4,1.4-3.1,0.4-5.9-0.6c-0.5,2.2-1.8,5-3.5,5.9
	c-1.3-2.4-2.7-4.7-5.9-5.3v1.8c-2.7,0-4.6,0.2-5.9-1.2c-0.5,0.3-0.8,2.1-1.2,2.4c-2.1,1.3-5.7-0.1-5.9,0c-0.4,0.8-0.8,1.6-1.2,2.4
	c0,0-3.2-0.6-4.1-0.6c-0.4,1.2-0.8,2.4-1.2,3.5c-0.8-0.2-2.6-1.3-3-1.2c-0.2,0.6-0.4,1.2-0.6,1.8c-1.1,0.4-3.3-1-4.7-1.2
	c-0.5,1.7-0.8,1.5-1.2,3.5c-1.8-0.2-2.5-1.2-3-0.6c-0.7,0.5-0.7,0.5-1.2,1.2c-1,1.5-0.7,2.2,0,4.7c-1.7,0-0.8-0.6-1.8,0
	c-0.2,1.4,0.7,1.1,1.2,3.5c-0.6-0.2-1.2-0.4-1.8-0.6c-0.2,1.9-0.6,2.8-1.2,4.1c-2.3-1.3-2.6-2.3-6.5-2.4c-1,1.9-1.6,2.3-1.8,5.3
	c-2.8,0.2-3.1,0.9-5.9,1.2c-1.1-2.1-1.6-3.3-4.7-3.5c-1.2,0.9-2.6,0.3-4.1,1.2c-1.4,0.8-2.9,3.6-4.1,4.7c-2.9-4.3-8.3-2.6-12.4-1.2
	c-0.5-1.3-0.5-0.9-1.2-1.8c-1,0.4-0.6,0.1-1.2,0.6c-1.2,0.9-1.4,1.8-2.4,3c-3.2-1.5-8,3.4-13,2.4c-8-1.6-9.5,1.7-15.4,3
	c-2.3,0.5-2.8-2.8-6.5-1.8c-1.1,0.3-4.3,0.7-5.9,1.2c-0.5,0.2-1.5,1.6-1.8,1.8c-3.7,1.5-8.4-3.2-10.1-1.8c-0.8,0.2-1.6,0.4-2.4,0.6
	c0.5,1.5,0.5,2.1,0,3.5c-0.6-0.2-1.2-0.4-1.8-0.6v2.4c-3.4-0.6-3.8-2.6-7.1-3.5c-0.1,1.4-0.1,1.7-0.6,2.4c-1.1-0.9-3.4-1.6-4.1-1.2
	c-3.6,1.2-4.8,4.8-7.7,6.5c-4.7-5.6-7.3,2.5-16,0c-4.3-1.2-11-3.4-15.4-1.2c-1,0.5-2.4,3.1-3.5,3.5c-1.7,0.7-3.4-2.1-5.9-1.2
	c-0.9,0.3-1.1,2.1-1.8,2.4c-5,2.3-11.1-3-14.8-0.6c-2.2,0.6-4.7,1.7-5.3,4.1c-3.6-0.1-5.1-0.4-8.3,0c-0.6,2.7-1,3.9-4.1,4.1
	c-2.3-1.2-8.4,2.3-11.2,3c-1.8,0.4-2.1-1-3-1.2c-1.7-0.4-5.3,1.8-5.3,1.8c-1.9-1-2.6-1.8-6.5-1.8c-0.8,1.6-1.6,3.2-2.4,4.7
	c-3-2-3.8-3.7-8.3-3c-0.4-0.1-1.5-1.7-1.8-1.8c-2.9-1-3.5,1.6-5.9,1.2c-1.7-0.3-2.2-1.5-4.7-1.8c-1,1.6-3.2,5.7-4.7,6.5V67
	c-1.8-2.9-0.3-4.9-4.7-5.3c-2.5,2-6.4,1.4-9.5,3.5c-0.6-0.4-1.7-2.1-2.4-2.4c-2.6,0.2-5.1,0.4-7.7,0.6c-2.4-1-1.6-3.9-6.5-4.7
	c-2.8,5.3-7.8,3.9-11.8,7.7c-0.4-3.1-1.2-3.1-4.7-3c-2.3,3.7-6.7,4.7-7.1,10.1c0.4,0.6,0.4,0.6,0.6,1.8h-1.2v-0.6
	c-1.7-1.6-0.6-2.9-3.5-3.5c-2,3.6-0.2,4.6-4.7,4.7c-1.4-1.4-3.6-2.6-5.9-3c-0.8,2-3.2,6.8-5.3,7.7v0.6h-0.6
	c-0.2-1.4-0.4-2.8-0.6-4.1c-2-0.3-2.3-1.5-3.5-1.8c-2.3-0.6-1.2,1.7-3,1.2c-1.7-0.5-0.9-2.2-5.3-2.4c-1.8,2.7-1.7,0-4.1,1.2
	c-1.4,1.6-2.8,3.2-4.1,4.7v-0.6c-2.3-1.5-3.3-3.5-6.5-4.1v0.6c-0.4-0.2-0.8-0.4-1.2-0.6v0.6c-4,2.9-3.3,7.5-3.5,13
	c-3.8,0-4.8-2-9.5-1.2c-0.8-3.2-5.4-6.4-9.5-6.5c-1.2,1.6-2.7,3.4-4.1,4.7c-2.7-4.3-8.3-7.2-16-7.1c-2.6,3-6,7.4-10.6,8.3
	c-1.4-2.3-2.8-4-6.5-4.1c-1.6,1.7-2.4,1.3-5.3,1.8c-0.2,1.4-0.3,1.5-0.6,2.4c-0.6-0.4-1.2-0.8-1.8-1.2c-2.5,0.1-5,2.9-7.1,3.5
	c-3.4,1.1-7.1-0.6-9.5,0c-0.4,0.1-3.3,1.4-4.1,1.8c-0.3,0.9-0.4,1-0.6,2.4c0.5,0.7,0.5,1,0.6,2.4c-4.2,1.5-6,4.5-10.1,5.3
	c-4.1-3-6.3,2.4-11.2,0.6c-1.1-0.4-1.7-2.6-3.5-2.4c-1.8,0.2-4.2,2.8-6.5,1.8c-1.3-1.7-2.5-4.2-3.5-5.9h-1.2v1.2
	c-3.1,3.4-2.1,7.5-1.8,11.8H29v-1.8c-2.2-1.8-3.3-4.5-6.5-5.3c-0.4-0.3,0-0.9-1.2-0.6v0.6c-1.8,0.6-4.5,1.7-5.9,3v1.8
	c-0.8,0.5-4.1-1.5-6.5,0c-2.3,1.5-2.8,5.1-5.3,6.5c-0.8-1.3-2-1.9-3.4-2.2L0,285.6H596.4z"/>
</svg>
