<?xml version="1.0" encoding="utf-8"?>
<!-- Generator: Adobe Illustrator 19.0.0, SVG Export Plug-In . SVG Version: 6.00 Build 0)  -->
<svg version="1.1" id="mountains" xmlns="http://www.w3.org/2000/svg" xmlns:xlink="http://www.w3.org/1999/xlink" x="0px" y="0px"
	 viewBox="0 0 595.7 307.5" style="enable-background:new 0 0 595.7 307.5;" xml:space="preserve">
<style type="text/css">
	.st0{fill-rule:evenodd;clip-rule:evenodd;fill:#28362D;}
</style>
<path class="st0" d="M596.4,307.4L595.8,3.7l-8.6-2.2c-0.6-0.1-7.6-1.6-8.2-1.5l-36.2,5.2c-0.2,0-0.5,0.1-0.7,0.1l-82.4,19.9
	c-0.2,0-0.3,0.1-0.5,0.1c-25.7,4.7-49,0.8-70.7,5c-17,3.2-30.6-6.5-43-9c-12.6-2.5-20.5,5-29.3,7.6c-1,0.3-2.1,0.4-3.2,0.3
	l-45.3-5.7c-0.8-0.1-2.9-1.3-9.9,0.9c-23.9,7.4-42,13.7-69,14.7c-0.3,0-6.4,1.3-6.7,1.4c-21.5,2.3-43,4.6-64.5,6.8
	c-0.7,0.1-1.4,0.2-2,0.5C97.6,54.4,83,67.8,62.1,73.1c-0.3,0.1-0.7,0.2-1,0.3c-2.9,1.2-24.8,7.6-35.2,10.9
	c-0.5,0.2-25.3,6.1-25.7,6.4v216.8H596.4z"/>
</svg>
