<?xml version="1.0" encoding="utf-8"?>
<!-- Generator: Adobe Illustrator 19.0.0, SVG Export Plug-In . SVG Version: 6.00 Build 0)  -->
<svg version="1.1" id="mountains" xmlns="http://www.w3.org/2000/svg" xmlns:xlink="http://www.w3.org/1999/xlink" x="0px" y="0px"
	 viewBox="0 0 595.7 303.1" style="enable-background:new 0 0 595.7 303.1;" xml:space="preserve">
<style type="text/css">
	.st0{fill-rule:evenodd;clip-rule:evenodd;fill:#26332A;}
</style>
<path class="st0" d="M596.4,303V17.6c-29,5.9-58.2-14.1-86.5-5.4C468.1,25,430.6,41,378,38.3c-14.9-0.8-14.1,4.7-28.2,2
	c-12.6-2.4-22,4.2-30.2,6c-6.4,1.5-8.6-3-12.1-4c-13-3.6-22.2,5.3-36.2,1c-32.9-14.1-65.8-28.2-98.7-42.3
	c-18.3-5.3-40,10.8-54.4,14.1c-18.6,4.3-31.1-8.7-44.3-6C70.2,9.9,10.9,31.2,0.2,35.5V303H596.4z"/>
</svg>
