<?xml version="1.0" encoding="utf-8"?>
<!-- Generator: Adobe Illustrator 19.0.0, SVG Export Plug-In . SVG Version: 6.00 Build 0)  -->
<svg version="1.1" id="mountains" xmlns="http://www.w3.org/2000/svg" xmlns:xlink="http://www.w3.org/1999/xlink" x="0px" y="0px"
	 viewBox="0 0 595.7 344.8" style="enable-background:new 0 0 595.7 344.8;" xml:space="preserve">
<style type="text/css">
	.st0{fill-rule:evenodd;clip-rule:evenodd;fill:#2E3D33;}
</style>
<path class="st0" d="M596.4,344.7L595.7,33c-27.8,0-55.3,5.7-77-4h-16c-8.9-2.3-20.2-8.4-30-11c-11.9-3.2-35,2.7-44,5
	c-10.6,2.7-17.9-5.8-29-2c-10.1,3.5-23.4,3-34,5c-10.3,2-21.8-4.1-34-4c-10.4,0.1-24.5,3.7-36,1c-3.5-0.8-9.4-3.5-15-2
	c-9.7,2.5-22.1,6.8-31,9c-7,1.8-15.5-2.8-20-4h-22c-17.1-3.9-34.5-5.7-53-2c-10.2,2-28-9.8-35-13c-11.6-5.3-23.4,1.8-34-2
	c-5.7-2-14.3-5.9-20-8c-9.5-3.5-35.7,3.4-44,6c-5.7,1.8-11.5,0.3-15,4c-2.9,0-4.9,0.2-6.6,0.6v333.2H596.4z"/>
</svg>
