<?xml version="1.0" encoding="utf-8"?>
<!-- Generator: Adobe Illustrator 19.0.0, SVG Export Plug-In . SVG Version: 6.00 Build 0)  -->
<svg version="1.1" id="mountains" xmlns="http://www.w3.org/2000/svg" xmlns:xlink="http://www.w3.org/1999/xlink" x="0px" y="0px"
	 viewBox="0 0 595.7 379.6" style="enable-background:new 0 0 595.7 379.6;" xml:space="preserve">
<style type="text/css">
	.st0{fill-rule:evenodd;clip-rule:evenodd;fill:#3A4C40;}
</style>
<path class="st0" d="M596.4,379.5v-328c-7.6-0.7-7.2-4-11.8-6.3c-5.6-2.8-20.3-2.9-26.7-4.3c-5.3,0.4-10.7,0.7-16,1.1
	c-21.7-4.1-46.7,1.3-67.2-3.2c-7.1,0.4-14.2,0.7-21.3,1.1c-15.5-3.4-27.8-8.6-39.5-14.9c-10.7-5.8-28.6-9.4-32-22.4
	C362.4,0.4,350.7,6.1,336,10c-13,3.5-30.9-1.1-42.7,3.2c-9.4,3.4-17,11.1-25.6,14.9c-9.2,4.1-18.7,4-28.8,7.5
	c-4.2,1.4-9.3,5.1-13.9,6.4c-4.6,0.4-9.2,0.7-13.9,1.1c-4.9,1.3-12.4,4.1-17.1,5.3c-11.9,3.3-26.4-1.9-37.3,1.1
	c-16.5,4.4-32.2,7.6-49.1,12.8c-4.2,1.3-11.5,4.9-16,5.3c-1.5,0.1-9.2-1.8-10.7-2.1c-14.6,0.7-29.2,1.4-43.7,2.1
	c-7,1.7-16.8,1.7-24.5,4.3c-4.5,1.5-7.3,4.6-12.6,5.3v302.4H596.4z"/>
</svg>
